<svg width="24" height="24" viewBox="0 0 24 24" fill="none" xmlns="http://www.w3.org/2000/svg">
<path d="M5.96104 1.20023C6.1396 1.20055 6.31816 1.20005 6.49671 1.19967C6.84553 1.19904 7.19435 1.19918 7.54317 1.19958C7.82691 1.1999 8.11064 1.19994 8.39438 1.19979C8.43491 1.19977 8.47544 1.19975 8.5172 1.19973C8.59957 1.19968 8.68193 1.19964 8.7643 1.19959C9.53488 1.19919 10.3055 1.19965 11.076 1.20041C11.7358 1.20103 12.3957 1.20092 13.0555 1.20028C13.8235 1.19952 14.5915 1.19923 15.3595 1.19966C15.4415 1.1997 15.5236 1.19975 15.6056 1.19979C15.646 1.19981 15.6863 1.19984 15.7279 1.19986C16.011 1.19998 16.2941 1.19978 16.5771 1.19944C16.9226 1.19905 17.268 1.19916 17.6134 1.1999C17.7894 1.20027 17.9653 1.20042 18.1412 1.19995C19.5279 1.19656 20.6642 1.34299 21.7148 2.32896C22.6235 3.28332 22.8034 4.42317 22.7994 5.68934C22.7996 5.7929 22.7999 5.89646 22.8002 6.00003C22.8008 6.27902 22.8006 6.558 22.8001 6.83699C22.7998 7.1297 22.8001 7.42241 22.8003 7.71512C22.8006 8.23735 22.8002 8.75957 22.7995 9.2818C22.7988 9.75494 22.7989 10.2281 22.7996 10.7012C22.8003 11.2521 22.8006 11.803 22.8002 12.3539C22.8 12.6451 22.7999 12.9362 22.8004 13.2273C22.8008 13.5006 22.8005 13.7738 22.7997 14.0471C22.7995 14.1473 22.7996 14.2476 22.7999 14.3479C22.8003 14.4846 22.7998 14.6214 22.7991 14.7582C22.7994 14.7979 22.7997 14.8376 22.8001 14.8785C22.7974 15.1418 22.7555 15.3455 22.5687 15.5457C22.2781 15.7679 22.0675 15.7909 21.7031 15.7499C21.5119 15.6726 21.4092 15.5709 21.3017 15.3966C21.2169 15.1921 21.2148 15.0263 21.2166 14.8074C21.2164 14.7648 21.2162 14.7223 21.216 14.6785C21.2154 14.5362 21.2159 14.3939 21.2163 14.2517C21.2161 14.1496 21.2159 14.0474 21.2156 13.9453C21.215 13.7255 21.2149 13.5057 21.2151 13.2858C21.2154 12.9379 21.2147 12.59 21.2138 12.2421C21.212 11.5031 21.2114 10.7642 21.2109 10.0253C21.2104 9.22844 21.2097 8.43164 21.2076 7.63483C21.2068 7.28931 21.2066 6.9438 21.2069 6.59828C21.207 6.38279 21.2065 6.1673 21.2058 5.95182C21.2056 5.85228 21.2057 5.75273 21.206 5.65319C21.2085 4.78118 21.1315 4.04815 20.5058 3.38713C20.0979 3.01167 19.5645 2.80694 19.0113 2.8062C18.9351 2.80593 18.9351 2.80593 18.8574 2.80565C18.8019 2.80569 18.7464 2.80573 18.6892 2.80578C18.6301 2.80564 18.5709 2.8055 18.5099 2.80535C18.3458 2.80498 18.1816 2.80489 18.0175 2.80486C17.8404 2.80477 17.6633 2.80442 17.4862 2.8041C17.099 2.80347 16.7118 2.80318 16.3246 2.80298C16.0827 2.80285 15.8408 2.80265 15.5989 2.80244C14.929 2.80187 14.2591 2.80138 13.5892 2.80122C13.5463 2.80121 13.5034 2.8012 13.4593 2.80119C13.4163 2.80118 13.3733 2.80117 13.3291 2.80116C13.242 2.80114 13.1549 2.80112 13.0678 2.8011C13.0247 2.80109 12.9815 2.80108 12.937 2.80107C12.2374 2.80088 11.5379 2.80006 10.8384 2.79897C10.1198 2.79786 9.40128 2.79728 8.68274 2.79722C8.27944 2.79718 7.87615 2.79691 7.47285 2.79606C7.12937 2.79534 6.7859 2.7951 6.44242 2.79548C6.26729 2.79567 6.09217 2.79563 5.91704 2.79497C5.72685 2.79426 5.53666 2.79464 5.34646 2.79513C5.26415 2.79457 5.26415 2.79457 5.18017 2.79399C4.48325 2.79817 3.8959 3.01258 3.38727 3.49406C3.01212 3.90161 2.80708 4.43486 2.80634 4.98771C2.80607 5.06357 2.80607 5.06357 2.80579 5.14097C2.80583 5.19626 2.80587 5.25155 2.80591 5.30852C2.80577 5.36747 2.80564 5.42642 2.80549 5.48716C2.80511 5.65069 2.80503 5.81422 2.805 5.97775C2.80491 6.15417 2.80455 6.33059 2.80424 6.50701C2.8036 6.89277 2.80332 7.27853 2.80311 7.66429C2.80298 7.90528 2.80279 8.14628 2.80257 8.38727C2.802 9.05482 2.80152 9.72237 2.80136 10.3899C2.80135 10.4326 2.80134 10.4754 2.80133 10.5194C2.80132 10.5622 2.80131 10.605 2.8013 10.6491C2.80128 10.7359 2.80126 10.8226 2.80124 10.9094C2.80122 10.974 2.80122 10.974 2.8012 11.0398C2.80102 11.7368 2.8002 12.4337 2.79911 13.1306C2.798 13.8466 2.79741 14.5625 2.79736 15.2784C2.79732 15.6802 2.79705 16.0821 2.7962 16.4839C2.79547 16.8261 2.79524 17.1683 2.79562 17.5106C2.7958 17.6851 2.79576 17.8595 2.7951 18.034C2.79439 18.2235 2.79478 18.4131 2.79527 18.6027C2.79489 18.6572 2.79452 18.7118 2.79413 18.768C2.79843 19.4845 2.99824 20.0887 3.4942 20.6126C3.98206 21.0617 4.5645 21.1951 5.20939 21.1932C5.25205 21.1933 5.29471 21.1933 5.33866 21.1934C5.48137 21.1936 5.62408 21.1934 5.76679 21.1933C5.86921 21.1933 5.97163 21.1934 6.07404 21.1935C6.2945 21.1937 6.51495 21.1938 6.7354 21.1938C7.08404 21.1939 7.43269 21.1945 7.78133 21.1952C7.84019 21.1953 7.89905 21.1955 7.95969 21.1956C8.08004 21.1958 8.20038 21.1961 8.32073 21.1963C8.62979 21.197 8.93886 21.1975 9.24792 21.1981C9.29443 21.1981 9.29443 21.1981 9.34187 21.1982C9.81307 21.199 10.2843 21.1992 10.7555 21.1991C11.3031 21.199 11.8507 21.1998 12.3983 21.2015C12.688 21.2023 12.9777 21.2028 13.2674 21.2022C13.5399 21.2017 13.8124 21.2022 14.0849 21.2036C14.1848 21.2039 14.2847 21.2038 14.3846 21.2033C14.5212 21.2027 14.6577 21.2034 14.7943 21.2046C14.8337 21.2041 14.8731 21.2035 14.9137 21.203C15.1977 21.2076 15.3886 21.2893 15.6094 21.4686C15.7796 21.6793 15.7735 21.8687 15.7665 22.1305C15.7367 22.3741 15.6193 22.4942 15.4453 22.6551C15.2206 22.8068 14.99 22.788 14.7263 22.7877C14.684 22.7878 14.6416 22.788 14.598 22.7881C14.4559 22.7885 14.3138 22.7886 14.1717 22.7887C14.0699 22.7889 13.9681 22.7891 13.8663 22.7894C13.5894 22.79 13.3124 22.7903 13.0355 22.7905C12.8623 22.7906 12.6891 22.7908 12.5159 22.791C11.9736 22.7917 11.4312 22.7921 10.8889 22.7923C10.7962 22.7923 10.7962 22.7923 10.7016 22.7924C10.6552 22.7924 10.6552 22.7924 10.6078 22.7924C10.0764 22.7926 9.54502 22.7935 9.01362 22.7947C8.52997 22.7957 8.04632 22.7962 7.56267 22.7962C7.27409 22.7963 6.98552 22.7966 6.69694 22.7974C6.425 22.7982 6.15307 22.7983 5.88113 22.7979C5.78181 22.7978 5.6825 22.798 5.58319 22.7985C4.35505 22.8039 3.24171 22.5828 2.33203 21.6938C1.52617 20.8719 1.20287 19.875 1.20653 18.7379C1.20635 18.6778 1.20617 18.6177 1.20598 18.5559C1.20551 18.3908 1.2056 18.2257 1.2058 18.0606C1.20592 17.8819 1.2055 17.7032 1.20515 17.5245C1.20455 17.175 1.20446 16.8256 1.20457 16.4761C1.20466 16.1918 1.20458 15.9075 1.20438 15.6233C1.20435 15.5827 1.20432 15.5422 1.20429 15.5004C1.20424 15.418 1.20418 15.3355 1.20412 15.2531C1.20361 14.4813 1.20371 13.7095 1.204 12.9376C1.20424 12.2328 1.20371 11.528 1.20282 10.8232C1.20191 10.0981 1.20153 9.37307 1.2017 8.648C1.20179 8.24148 1.20168 7.83496 1.20101 7.42844C1.20045 7.08232 1.20039 6.7362 1.20096 6.39007C1.20123 6.21378 1.20129 6.03749 1.20072 5.86119C1.19657 4.47337 1.34228 3.33654 2.3291 2.28502C3.36528 1.29848 4.5992 1.19659 5.96104 1.20023Z" fill="#B0B0B0"/>
<path d="M14.8618 13.1804C14.9382 13.1959 15.0145 13.2113 15.0909 13.2267C15.25 13.2589 15.409 13.2915 15.568 13.3243C15.7713 13.3662 15.9747 13.4073 16.1781 13.4481C16.3355 13.4798 16.4927 13.5119 16.6499 13.544C16.7249 13.5594 16.7999 13.5745 16.8749 13.5896C16.9798 13.6108 17.0845 13.6324 17.1891 13.6542C17.2486 13.6664 17.308 13.6786 17.3693 13.6911C17.7324 13.7888 17.9383 13.9805 18.1972 14.241C18.2347 14.2782 18.2722 14.3154 18.3109 14.3538C18.4347 14.4767 18.558 14.6002 18.6812 14.7237C18.7673 14.8096 18.8535 14.8955 18.9397 14.9814C19.1202 15.1615 19.3005 15.3419 19.4806 15.5224C19.6879 15.7303 19.8959 15.9376 20.1041 16.1446C20.3053 16.3446 20.5059 16.5451 20.7063 16.7458C20.7912 16.8307 20.8763 16.9155 20.9615 17.0002C21.081 17.1189 21.1998 17.2383 21.3186 17.3578C21.3535 17.3923 21.3884 17.4268 21.4244 17.4623C21.9275 17.9724 22.1719 18.548 22.1719 19.266C22.1022 20.1249 21.6685 20.6299 21.0792 21.2201C21.0376 21.2627 20.9961 21.3054 20.9533 21.3494C20.4499 21.855 19.9389 22.1281 19.2225 22.1722C18.3661 22.1722 17.8131 21.7642 17.2309 21.1837C17.1756 21.1291 17.1756 21.1291 17.1191 21.0734C16.9986 20.9542 16.8784 20.8347 16.7582 20.7151C16.7169 20.674 16.6756 20.6329 16.633 20.5906C16.4371 20.3959 16.2413 20.2011 16.0458 20.0059C15.8212 19.7818 15.596 19.5582 15.3703 19.3352C15.1738 19.141 14.9781 18.946 14.7826 18.7507C14.6997 18.6681 14.6167 18.5858 14.5333 18.5037C14.4169 18.3888 14.3013 18.2731 14.186 18.1572C14.1517 18.1237 14.1173 18.0902 14.0819 18.0558C13.865 17.8353 13.7573 17.645 13.6876 17.3441C13.6738 17.2874 13.66 17.2307 13.6457 17.1722C13.6344 17.1164 13.623 17.0606 13.6114 17.0032C13.6049 16.9719 13.5985 16.9407 13.5919 16.9085C13.5711 16.8068 13.5506 16.705 13.5303 16.6032C13.5158 16.5315 13.5013 16.4598 13.4867 16.3881C13.4565 16.2383 13.4265 16.0885 13.3966 15.9387C13.3585 15.7479 13.3197 15.5573 13.2807 15.3668C13.2506 15.2189 13.2209 15.0708 13.1913 14.9228C13.1772 14.8525 13.163 14.7823 13.1485 14.7121C12.9404 13.6966 12.9404 13.6966 13.1045 13.3626C13.5488 12.8045 14.2563 13.0552 14.8618 13.1804ZM14.8126 14.8128C14.8153 14.8382 14.818 14.8635 14.8208 14.8896C14.8247 14.9265 14.8285 14.9634 14.8325 15.0014C14.8371 15.0446 14.8416 15.0877 14.8463 15.1321C14.8554 15.2358 14.8616 15.3398 14.8654 15.4439C14.9315 16.9283 15.8015 17.7068 16.8397 18.6781C17.0094 18.8383 17.1761 19.0014 17.3428 19.1647C17.5428 19.3606 17.744 19.5552 17.9457 19.7494C17.9836 19.7859 18.0216 19.8225 18.0607 19.8602C18.1684 19.9634 18.2768 20.0657 18.3857 20.1677C18.4171 20.198 18.4486 20.2282 18.481 20.2594C18.6911 20.454 18.921 20.6331 19.2239 20.6216C19.506 20.5776 19.6791 20.3969 19.8751 20.2035C19.9264 20.1554 19.9778 20.1075 20.0292 20.0595C20.0844 20.007 20.1394 19.9544 20.1944 19.9017C20.2208 19.8771 20.2472 19.8525 20.2744 19.8271C20.4653 19.64 20.5518 19.4771 20.6251 19.2191C20.623 18.9874 20.5346 18.8348 20.3818 18.666C20.3523 18.6333 20.3229 18.6005 20.2926 18.5668C20.2631 18.5346 20.2336 18.5023 20.2032 18.4691C20.1778 18.441 20.1523 18.4128 20.1261 18.3839C20.0493 18.2993 19.972 18.2152 19.8945 18.1312C19.8509 18.0841 19.8509 18.0841 19.8065 18.0359C19.5375 17.7456 19.2644 17.4593 18.9899 17.1742C18.8068 16.9839 18.6254 16.7924 18.4473 16.5974C17.4228 15.4784 16.5911 14.8885 15.0469 14.8128C14.9688 14.812 14.8907 14.8116 14.8126 14.8128Z" fill="#B0B0B0"/>
<path d="M6.18991 5.22575C6.2372 5.22543 6.28449 5.2251 6.33321 5.22477C6.49159 5.22391 6.64993 5.22439 6.80831 5.22487C6.92189 5.22454 7.03546 5.22413 7.14904 5.22365C7.42547 5.2227 7.70189 5.22264 7.97832 5.22302C8.20303 5.22332 8.42774 5.22326 8.65245 5.22296C8.70045 5.2229 8.70045 5.2229 8.74942 5.22283C8.81444 5.22275 8.87945 5.22266 8.94446 5.22257C9.55392 5.22179 10.1634 5.2222 10.7728 5.22299C11.3302 5.22368 11.8875 5.223 12.4449 5.22164C13.0174 5.22027 13.59 5.21975 14.1625 5.2202C14.2273 5.22025 14.2921 5.22029 14.3569 5.22034C14.4047 5.22037 14.4047 5.22037 14.4535 5.22041C14.6778 5.22051 14.9022 5.22005 15.1266 5.21937C15.4287 5.21846 15.7308 5.21878 16.033 5.21994C16.1439 5.22017 16.2548 5.22001 16.3657 5.21942C16.5171 5.21867 16.6684 5.21937 16.8198 5.22043C16.8637 5.21988 16.9076 5.21932 16.9528 5.21875C17.2518 5.22302 17.3997 5.28584 17.625 5.48425C17.7697 5.68499 17.7929 5.8736 17.7852 6.11542C17.7458 6.3547 17.6262 6.53334 17.4385 6.68338C17.2354 6.77874 17.0529 6.76946 16.831 6.76805C16.7601 6.76843 16.7601 6.76843 16.6878 6.76882C16.5291 6.76949 16.3705 6.76915 16.2119 6.76882C16.0982 6.76908 15.9846 6.76941 15.871 6.76979C15.5942 6.77055 15.3174 6.77064 15.0407 6.77039C14.8157 6.7702 14.5908 6.77027 14.3658 6.77052C14.3338 6.77056 14.3018 6.77059 14.2688 6.77063C14.2037 6.7707 14.1387 6.77077 14.0736 6.77084C13.4636 6.77149 12.8536 6.77123 12.2436 6.77069C11.6856 6.77023 11.1277 6.77083 10.5697 6.77196C9.99664 6.7731 9.42361 6.77355 8.85058 6.77324C8.5289 6.77307 8.20722 6.77318 7.88554 6.774C7.58309 6.77476 7.28065 6.77454 6.9782 6.77366C6.86713 6.77348 6.75606 6.77363 6.64498 6.77412C6.49349 6.77474 6.34204 6.7742 6.19054 6.77337C6.14647 6.77382 6.1024 6.77427 6.057 6.77474C5.79533 6.77178 5.64491 6.73731 5.4375 6.56238C5.26742 6.38335 5.23547 6.23975 5.22656 5.99988C5.23547 5.76001 5.26742 5.61641 5.4375 5.43738C5.68538 5.22846 5.88026 5.22303 6.18991 5.22575Z" fill="#B0B0B0"/>
<path d="M6.33961 9.21598C6.39727 9.21573 6.45492 9.21548 6.51432 9.21523C6.6719 9.21472 6.82945 9.21484 6.98703 9.21528C7.15225 9.21564 7.31746 9.21531 7.48268 9.21509C7.76008 9.21483 8.03748 9.21517 8.31489 9.21584C8.63521 9.21661 8.95552 9.21636 9.27585 9.21558C9.55129 9.21494 9.82674 9.21486 10.1022 9.21522C10.2665 9.21544 10.4308 9.21547 10.5952 9.21501C10.7784 9.21452 10.9616 9.21519 11.1448 9.21598C11.1991 9.21569 11.2533 9.21541 11.3091 9.21511C11.5732 9.21721 11.7745 9.22059 12 9.3748C12.1821 9.567 12.2691 9.73618 12.2989 9.99882C12.277 10.2139 12.2191 10.3705 12.0938 10.5467C11.8766 10.7195 11.709 10.7867 11.4345 10.7876C11.3854 10.7879 11.3363 10.7882 11.2857 10.7884C11.2049 10.7885 11.2049 10.7885 11.1225 10.7886C11.0375 10.789 11.0375 10.789 10.9507 10.7893C10.795 10.7899 10.6394 10.7902 10.4837 10.7904C10.3865 10.7906 10.2892 10.7908 10.1919 10.791C9.88741 10.7916 9.58291 10.7921 9.27842 10.7922C8.92715 10.7925 8.5759 10.7933 8.22463 10.7946C7.95297 10.7957 7.68131 10.7961 7.40965 10.7962C7.24747 10.7962 7.08529 10.7965 6.92311 10.7973C6.74211 10.7983 6.56112 10.7981 6.38011 10.7978C6.29978 10.7984 6.29978 10.7984 6.21782 10.7991C5.91673 10.7975 5.68504 10.7839 5.45421 10.5685C5.23202 10.2779 5.20904 10.0673 5.25004 9.70292C5.32579 9.51551 5.42757 9.41279 5.59409 9.30151C5.84277 9.20391 6.07472 9.21459 6.33961 9.21598Z" fill="#B0B0B0"/>
<path d="M6.02979 13.2123C6.0744 13.2119 6.11902 13.2116 6.16498 13.2112C6.21386 13.2111 6.26273 13.211 6.31308 13.2109C6.36462 13.2106 6.41616 13.2102 6.46926 13.2099C6.64018 13.209 6.8111 13.2085 6.98203 13.208C7.04038 13.2078 7.09874 13.2076 7.15887 13.2074C7.43593 13.2065 7.71299 13.2059 7.99006 13.2055C8.3093 13.205 8.62853 13.2038 8.94777 13.2019C9.22471 13.2003 9.50164 13.1997 9.77858 13.1995C9.89615 13.1993 10.0137 13.1988 10.1313 13.1979C10.296 13.1968 10.4607 13.1968 10.6254 13.1971C10.6738 13.1965 10.7222 13.1959 10.7721 13.1953C11.0643 13.1974 11.2883 13.2372 11.5313 13.4067C11.7489 13.6355 11.7824 13.827 11.7788 14.133C11.7528 14.3653 11.624 14.4913 11.4551 14.6401C11.2999 14.7504 11.221 14.772 11.0331 14.7733C10.9873 14.7737 10.9416 14.7741 10.8945 14.7745C10.819 14.7748 10.819 14.7748 10.7419 14.7751C10.6625 14.7757 10.6625 14.7757 10.5816 14.7762C10.4058 14.7774 10.2301 14.7782 10.0544 14.7789C9.9944 14.7791 9.93445 14.7794 9.87268 14.7796C9.62063 14.7806 9.36859 14.7815 9.11654 14.782C8.75575 14.7828 8.39499 14.7843 8.03421 14.787C7.74969 14.7891 7.46517 14.7898 7.18065 14.7901C7.0598 14.7904 6.93896 14.7911 6.81812 14.7923C6.64879 14.7937 6.47952 14.7937 6.31019 14.7934C6.23551 14.7945 6.23551 14.7945 6.15932 14.7957C5.84507 14.7931 5.63254 14.7385 5.39066 14.5317C5.22046 14.321 5.22648 14.1316 5.23355 13.8697C5.26342 13.6251 5.38083 13.5047 5.55765 13.3451C5.71824 13.234 5.83937 13.2132 6.02979 13.2123Z" fill="#B0B0B0"/>
<path d="M14.5316 9.22648C14.6203 9.22558 14.6203 9.22558 14.7108 9.22466C14.7757 9.22427 14.8406 9.22393 14.9055 9.22361C14.9382 9.22342 14.9708 9.22323 15.0045 9.22303C15.1774 9.22205 15.3504 9.22138 15.5234 9.22094C15.7017 9.22042 15.88 9.21881 16.0583 9.21695C16.1957 9.21572 16.333 9.21533 16.4704 9.21516C16.5361 9.21493 16.6018 9.21439 16.6675 9.21352C16.7597 9.21237 16.852 9.21254 16.9442 9.21275C16.9966 9.21247 17.0489 9.2122 17.1029 9.21191C17.3393 9.24867 17.4843 9.36899 17.6396 9.54532C17.7957 9.7649 17.7879 9.95536 17.7656 10.2192C17.6874 10.4415 17.5859 10.5577 17.3906 10.6879C17.2137 10.7721 17.0726 10.7938 16.8774 10.7953C16.8223 10.7959 16.7673 10.7965 16.7105 10.7971C16.6514 10.7972 16.5922 10.7973 16.5313 10.7974C16.4701 10.7977 16.4089 10.798 16.3458 10.7983C16.2164 10.7989 16.087 10.7991 15.9575 10.799C15.7925 10.799 15.6275 10.8003 15.4625 10.8019C15.3041 10.8032 15.1458 10.8031 14.9874 10.8033C14.9285 10.8039 14.8697 10.8046 14.809 10.8053C14.475 10.8036 14.2514 10.777 13.9687 10.5942C13.7511 10.3653 13.7176 10.1738 13.7212 9.86777C13.7473 9.63554 13.8761 9.5095 14.0449 9.36075C14.2205 9.23601 14.3167 9.22838 14.5316 9.22648Z" fill="#B0B0B0"/>
</svg>
