<svg width="24" height="24" viewBox="0 0 24 24" fill="none" xmlns="http://www.w3.org/2000/svg">
<g clip-path="url(#clip0_1374_1494)">
<path d="M8.458 1.38872C8.49474 1.38876 8.53148 1.3888 8.56934 1.38884C9.21175 1.3912 9.82698 1.4412 10.4531 1.5938C10.4969 1.60437 10.5408 1.61493 10.5859 1.62582C12.7138 2.16052 14.5307 3.55213 15.7119 5.38188C15.7969 5.5313 15.7969 5.5313 15.7969 5.62505C15.8442 5.62571 15.8915 5.62638 15.9402 5.62706C17.4406 5.66864 19.0268 6.14501 20.25 7.0313C20.2775 7.05091 20.3051 7.07051 20.3335 7.09072C22.2434 8.45546 23.4876 10.3714 23.9277 12.6863C23.9775 12.9945 24.0078 13.2938 24.0112 13.6055C24.0116 13.6415 24.0121 13.6775 24.0125 13.7145C24.0273 15.1719 23.8904 16.7111 23.1061 17.9879C22.9541 18.357 23.1408 18.9309 23.2079 19.3135C23.2272 19.4273 23.2465 19.5411 23.2657 19.6549C23.296 19.8316 23.3264 20.0083 23.3571 20.185C23.3869 20.3573 23.4161 20.5297 23.4452 20.7021C23.4592 20.781 23.4592 20.781 23.4734 20.8614C23.5308 21.2047 23.5704 21.4934 23.4023 21.8116C23.2681 21.9719 23.149 22.0632 22.9402 22.0993C22.3343 22.1028 21.7433 21.9751 21.1494 21.8672C20.981 21.8369 20.8125 21.8067 20.644 21.777C20.5398 21.7585 20.4357 21.7398 20.3316 21.7206C19.8766 21.6399 19.5407 21.6042 19.1279 21.8262C18.015 22.3847 16.7925 22.6146 15.5537 22.6084C15.4999 22.6083 15.4999 22.6083 15.445 22.6082C14.8801 22.6059 14.3342 22.5772 13.7812 22.4532C13.7451 22.4454 13.709 22.4376 13.6717 22.4296C12.2253 22.1094 10.8736 21.4079 9.79686 20.3907C9.73455 20.3377 9.67205 20.285 9.60936 20.2325C9.05962 19.7486 8.55072 19.1156 8.20311 18.4688C8.20311 18.4379 8.20311 18.4069 8.20311 18.375C8.1558 18.3744 8.10849 18.3737 8.05974 18.373C7.07466 18.3457 6.00006 18.1619 5.12035 17.6976C5.08231 17.6778 5.04426 17.6581 5.00506 17.6378C4.93328 17.5998 4.86235 17.56 4.79271 17.5182C4.43411 17.3259 4.08453 17.4166 3.70311 17.4844C3.61528 17.4991 3.52742 17.5136 3.43956 17.528C3.0956 17.5851 2.75202 17.6443 2.40858 17.7044C2.26068 17.7301 2.1127 17.7554 1.96471 17.7807C1.92027 17.7886 1.87582 17.7965 1.83003 17.8047C1.11631 17.9254 1.11631 17.9254 0.826161 17.7803C0.598515 17.5798 0.499561 17.4551 0.470411 17.1448C0.467019 16.8828 0.520446 16.6278 0.566701 16.3708C0.577335 16.3091 0.587911 16.2474 0.59843 16.1858C0.62607 16.0244 0.654347 15.8632 0.682815 15.7021C0.72287 15.4749 0.762328 15.2477 0.801437 15.0204C0.822261 14.8996 0.843376 14.779 0.864818 14.6583C0.970486 14.1704 0.970486 14.1704 0.865346 13.6984C0.842126 13.6526 0.842126 13.6526 0.818436 13.6059C0.80165 13.5738 0.784863 13.5418 0.767567 13.5088C0.297619 12.5569 0.000124346 11.4593 -0.0111802 10.3946C-0.0116393 10.3586 -0.0120984 10.3226 -0.0125714 10.2856C-0.0372116 7.85245 0.680561 5.70682 2.39061 3.93755C2.43201 3.89374 2.4734 3.84993 2.51604 3.8048C3.55652 2.72818 4.94151 1.99348 6.38378 1.62603C6.42825 1.61465 6.47273 1.60328 6.51856 1.59157C7.16287 1.43571 7.79813 1.3869 8.458 1.38872ZM6.89061 3.00005C6.85778 3.00809 6.82495 3.01614 6.79112 3.02442C5.03368 3.46685 3.44699 4.59882 2.48436 6.14067C1.51022 7.77117 1.15869 9.73412 1.61187 11.5921C1.77677 12.2004 2.00436 12.7912 2.3232 13.3361C2.52801 13.7078 2.43775 14.1302 2.36571 14.5307C2.35479 14.5945 2.35479 14.5945 2.34364 14.6595C2.3206 14.7936 2.29705 14.9276 2.27343 15.0616C2.24987 15.1964 2.22643 15.3313 2.20321 15.4662C2.18882 15.5497 2.17422 15.6332 2.15939 15.7166C2.15282 15.7545 2.14625 15.7924 2.13949 15.8314C2.13074 15.881 2.13074 15.881 2.12182 15.9315C2.10781 16.0437 2.10733 16.1527 2.10936 16.2657C2.13789 16.2609 2.16642 16.2561 2.19582 16.2511C2.49382 16.2011 2.79193 16.1518 3.09012 16.1029C3.20127 16.0846 3.31238 16.0661 3.42347 16.0474C3.5835 16.0204 3.74363 15.9942 3.9038 15.9681C3.95313 15.9597 4.00246 15.9512 4.05329 15.9425C4.4336 15.8816 4.73574 15.8705 5.08648 16.0553C5.13308 16.0791 5.17969 16.1029 5.22771 16.1274C5.27663 16.1528 5.32556 16.1781 5.37597 16.2041C7.02804 17.025 8.93236 17.1645 10.6888 16.5835C12.5487 15.9332 13.9905 14.6167 14.8656 12.8573C15.2287 12.0976 15.4874 11.2043 15.5156 10.3594C15.5168 10.3283 15.518 10.2971 15.5193 10.265C15.5818 8.43212 15.0099 6.60563 13.7607 5.24126C13.6745 5.14974 13.5873 5.0593 13.5 4.9688C13.4607 4.92596 13.4213 4.88312 13.3808 4.83898C13.0244 4.46205 12.6207 4.17311 12.1875 3.89067C12.1459 3.86338 12.1459 3.86338 12.1035 3.83554C11.0433 3.15239 9.74806 2.83802 8.49901 2.84478C8.44967 2.8449 8.44967 2.8449 8.39932 2.84503C7.88553 2.84728 7.39046 2.87407 6.89061 3.00005ZM16.5469 7.17192C16.5936 7.41219 16.6426 7.65158 16.6977 7.89006C16.8786 8.69615 16.935 9.48954 16.9687 10.3125C17.0136 10.313 17.0136 10.313 17.0594 10.3134C17.3712 10.3164 17.6829 10.3203 17.9947 10.3249C18.111 10.3264 18.2273 10.3277 18.3436 10.3288C18.5109 10.3304 18.6782 10.3328 18.8456 10.3354C18.8974 10.3357 18.9493 10.336 19.0027 10.3363C19.2644 10.3413 19.4633 10.3491 19.6875 10.5C19.868 10.6992 19.8877 10.8868 19.886 11.1459C19.8714 11.2845 19.8155 11.3729 19.7344 11.4844C19.7344 11.5154 19.7344 11.5463 19.7344 11.5782C19.5152 11.667 19.34 11.7247 19.1024 11.7284C19.0236 11.7298 19.0236 11.7298 18.9432 11.7313C18.8582 11.7324 18.8582 11.7324 18.7714 11.7336C18.7133 11.7346 18.6553 11.7356 18.5955 11.7366C18.4413 11.7391 18.2871 11.7415 18.1329 11.7437C17.9754 11.7461 17.818 11.7487 17.6606 11.7513C17.3519 11.7563 17.0431 11.7611 16.7344 11.7657C16.7226 11.8055 16.7226 11.8055 16.7107 11.8461C16.6746 11.9681 16.6384 12.0901 16.6022 12.2121C16.5899 12.2538 16.5776 12.2955 16.5649 12.3385C16.4771 12.6333 16.3766 12.9182 16.2601 13.2031C16.2132 13.3077 16.2132 13.3077 16.2187 13.4063C16.2586 13.4065 16.2985 13.4066 16.3396 13.4068C16.7162 13.4086 17.0927 13.4113 17.4693 13.4149C17.6629 13.4168 17.8564 13.4183 18.05 13.419C18.237 13.4197 18.4239 13.4213 18.6108 13.4236C18.682 13.4243 18.7532 13.4246 18.8244 13.4247C18.9244 13.4248 19.0243 13.4261 19.1243 13.4276C19.1811 13.428 19.2379 13.4284 19.2965 13.4288C19.4847 13.4581 19.5864 13.5228 19.7344 13.6407C19.8888 13.862 19.9178 14.0814 19.875 14.3438C19.7691 14.548 19.6465 14.7136 19.4241 14.7926C19.2607 14.8218 19.0989 14.8153 18.9336 14.8118C18.8548 14.8105 18.7759 14.8093 18.697 14.8082C18.6553 14.8075 18.6135 14.8068 18.5705 14.8061C18.3021 14.8024 18.0337 14.8018 17.7653 14.8007C17.5298 14.7996 17.2945 14.7973 17.059 14.7925C16.8308 14.7878 16.6028 14.7864 16.3745 14.7872C16.2879 14.7869 16.2013 14.7854 16.1148 14.7828C15.6553 14.7572 15.6553 14.7572 15.2425 14.9236C15.0895 15.0778 14.975 15.251 14.8637 15.4366C14.7385 15.6301 14.5586 15.7843 14.3935 15.9434C14.3424 15.9936 14.3424 15.9936 14.2902 16.0448C14.2276 16.1062 14.1648 16.1675 14.1019 16.2285C14.0098 16.3182 13.9189 16.4091 13.8281 16.5C13.8712 16.5002 13.8712 16.5002 13.9152 16.5003C14.6147 16.502 15.3142 16.5048 16.0138 16.5087C16.3521 16.5105 16.6903 16.5121 17.0286 16.5128C17.3235 16.5134 17.6184 16.5146 17.9133 16.5167C18.0694 16.5177 18.2255 16.5184 18.3817 16.5184C18.5561 16.5185 18.7304 16.5198 18.9048 16.5213C18.9564 16.5211 19.008 16.5209 19.0611 16.5206C19.3464 16.5245 19.5185 16.5414 19.7344 16.7344C19.889 16.956 19.9174 17.1749 19.875 17.4375C19.7706 17.6462 19.6636 17.7595 19.4531 17.8594C19.289 17.9124 19.1345 17.9123 18.9626 17.9126C18.9323 17.9127 18.902 17.9128 18.8707 17.9129C18.7692 17.9132 18.6676 17.9131 18.5661 17.9131C18.4933 17.9132 18.4204 17.9134 18.3476 17.9136C18.1497 17.914 17.9518 17.9141 17.7539 17.9141C17.6303 17.9142 17.5066 17.9143 17.3829 17.9144C16.9512 17.9148 16.5195 17.915 16.0877 17.915C15.6857 17.915 15.2836 17.9154 14.8816 17.9162C14.5361 17.9168 14.1907 17.9171 13.8453 17.917C13.6391 17.917 13.4329 17.9171 13.2267 17.9176C13.0326 17.9181 12.8386 17.9181 12.6445 17.9178C12.5735 17.9177 12.5024 17.9178 12.4314 17.9181C12.0857 17.9194 11.7713 17.9089 11.4375 17.8125C11.274 17.8442 11.274 17.8442 11.1152 17.9122C10.8366 18.0168 10.5596 18.0932 10.2685 18.1553C10.2311 18.1633 10.1936 18.1713 10.155 18.1796C10.0669 18.1982 9.97877 18.2163 9.89061 18.2344C9.95728 18.4424 10.0705 18.5802 10.2187 18.7354C10.2533 18.7721 10.2533 18.7721 10.2885 18.8096C10.3587 18.8839 10.4293 18.9576 10.5 19.0313C10.5385 19.0723 10.5771 19.1134 10.6168 19.1556C11.4628 20.0335 12.5167 20.5843 13.6787 20.9239C13.7357 20.9407 13.7357 20.9407 13.7938 20.9578C14.3647 21.1158 14.937 21.1579 15.5273 21.1553C15.5591 21.1552 15.5908 21.1551 15.6234 21.155C16.1316 21.1524 16.6158 21.1234 17.1094 21C17.1446 20.9917 17.1798 20.9834 17.2161 20.9748C17.7831 20.8372 18.2904 20.6178 18.8044 20.3421C19.4438 20.0119 20.0608 20.2005 20.7392 20.3204C20.8743 20.3439 21.0093 20.3673 21.1444 20.3906C21.2279 20.405 21.3114 20.4196 21.3949 20.4344C21.4327 20.441 21.4704 20.4475 21.5093 20.4543C21.5423 20.4601 21.5753 20.466 21.6093 20.472C21.7183 20.4885 21.7183 20.4885 21.8906 20.4844C21.8513 20.1173 21.8012 19.7535 21.7385 19.3896C21.7306 19.3439 21.7306 19.3439 21.7226 19.2972C21.696 19.1433 21.6689 18.9894 21.6411 18.8356C21.531 18.2037 21.5192 17.8251 21.8262 17.253C22.0833 16.7459 22.2724 16.2549 22.4062 15.7032C22.422 15.6441 22.4378 15.585 22.454 15.5241C22.8346 13.8314 22.471 11.9168 21.5625 10.4532C21.138 9.79056 20.6234 9.17288 20.0156 8.67192C19.9913 8.65184 19.967 8.63176 19.942 8.61106C19.0541 7.88867 17.7281 7.14447 16.5469 7.17192Z" fill="#6C7278"/>
<path d="M8.45221 5.18881C8.49375 5.18806 8.53529 5.1873 8.57809 5.18652C9.24757 5.18604 9.80782 5.46208 10.2869 5.91885C10.7822 6.4513 10.9875 7.08761 10.9785 7.80521C10.9369 8.50835 10.6464 9.10044 10.1375 9.58518C9.87066 9.80586 9.54775 9.93783 9.23444 10.0785C9.23375 10.1267 9.23307 10.1749 9.23236 10.2246C9.22964 10.4044 9.22602 10.5842 9.22213 10.764C9.22058 10.8416 9.21926 10.9193 9.2182 10.9969C9.21662 11.1089 9.21416 11.2208 9.21155 11.3327C9.21125 11.3672 9.21095 11.4016 9.21064 11.4371C9.20438 11.6584 9.16329 11.812 9.04694 12.0003C8.82774 12.2031 8.65148 12.2526 8.36011 12.2473C8.17832 12.2265 8.05893 12.1666 7.92194 12.0472C7.71075 11.7614 7.70753 11.466 7.71118 11.1225C7.71111 11.0707 7.71105 11.0188 7.71097 10.9654C7.71105 10.8562 7.71159 10.7471 7.71257 10.638C7.71393 10.4712 7.71353 10.3045 7.71292 10.1378C7.71321 10.0315 7.71361 9.92514 7.71411 9.81882C7.71397 9.76915 7.71384 9.71949 7.71369 9.66832C7.71743 9.375 7.73741 9.1478 7.94702 8.92325C8.14924 8.76861 8.26377 8.71557 8.51373 8.68393C8.82486 8.63251 9.0623 8.5513 9.2608 8.29721C9.42916 8.03703 9.4996 7.81378 9.46881 7.50034C9.38841 7.15592 9.197 6.94696 8.90631 6.75034C8.60438 6.64507 8.36095 6.64093 8.06256 6.75034C7.79934 6.89713 7.61883 7.08192 7.50006 7.35971C7.48402 7.45112 7.47053 7.54301 7.45905 7.6351C7.41098 7.93903 7.32561 8.10683 7.09576 8.31479C6.88138 8.41801 6.70274 8.42868 6.46881 8.39096C6.26352 8.28831 6.12222 8.16363 6.00006 7.96909C5.88646 7.39628 6.04166 6.80125 6.35089 6.31216C6.48359 6.12918 6.63103 5.9666 6.79694 5.81284C6.81984 5.79024 6.84274 5.76764 6.86633 5.74435C7.30382 5.33493 7.86678 5.18671 8.45221 5.18881Z" fill="#6C7278"/>
<path d="M8.82125 13.1978C9.01569 13.3062 9.12249 13.4262 9.18746 13.6402C9.22306 13.8742 9.21418 14.0513 9.11422 14.2672C8.9181 14.4784 8.74446 14.5867 8.45797 14.6012C8.19439 14.5882 8.04994 14.4649 7.86031 14.2906C7.74552 14.095 7.72565 13.9121 7.73434 13.6871C7.81382 13.4393 7.9518 13.3205 8.15621 13.1715C8.39284 13.0926 8.59313 13.0982 8.82125 13.1978Z" fill="#6C7278"/>
</g>
<defs>
<clipPath id="clip0_1374_1494">
<rect width="24" height="24" fill="white"/>
</clipPath>
</defs>
</svg>
