<svg width="12" height="11" viewBox="0 0 12 11" fill="none" xmlns="http://www.w3.org/2000/svg">
<path d="M8 8.00026L5.33333 10.6669L12 10.6669L12 8.00026L8 8.00026ZM6.04 2.12692L0 8.16692L0 10.6669L2.5 10.6669L8.54 4.62692L6.04 2.12692ZM1.94667 9.33359L1.33333 9.33359L1.33333 8.72026L6.04 4.01359L6.65333 4.62692L1.94667 9.33359ZM10.4733 2.69359C10.5351 2.63191 10.5842 2.55865 10.6176 2.47801C10.6511 2.39736 10.6683 2.3109 10.6683 2.22359C10.6683 2.13628 10.6511 2.04982 10.6176 1.96917C10.5842 1.88852 10.5351 1.81526 10.4733 1.75359L8.91333 0.193589C8.78834 0.0695832 8.6194 0 8.44333 0C8.26726 0 8.09833 0.0695832 7.97333 0.193589L6.75333 1.41359L9.25333 3.91359L10.4733 2.69359Z" fill="#46A0F1"/>
</svg>
