<svg width="25" height="24" viewBox="0 0 25 24" fill="none" xmlns="http://www.w3.org/2000/svg">
<g clip-path="url(#clip0_1_4005)">
<path d="M6.32776 12.6604H5.55615V11.1172H6.32776C6.5324 11.1172 6.72866 11.1985 6.87337 11.3432C7.01807 11.4879 7.09937 11.6842 7.09937 11.8888C7.09937 12.0934 7.01807 12.2897 6.87337 12.4344C6.72866 12.5791 6.5324 12.6604 6.32776 12.6604ZM11.729 15.7468V11.1172H12.5006C12.7053 11.1172 12.9015 11.1985 13.0462 11.3432C13.1909 11.4879 13.2722 11.6842 13.2722 11.8888V14.9752C13.2722 15.1799 13.1909 15.3761 13.0462 15.5208C12.9015 15.6655 12.7053 15.7468 12.5006 15.7468H11.729Z" fill="#D02020"/>
<path fill-rule="evenodd" clip-rule="evenodd" d="M2.46973 2.62928C2.46973 2.01535 2.71361 1.42656 3.14772 0.99245C3.58184 0.558336 4.17062 0.314453 4.78455 0.314453L17.4497 0.314453L22.5315 5.39627V21.1479C22.5315 21.7618 22.2877 22.3506 21.8535 22.7847C21.4194 23.2188 20.8306 23.4627 20.2167 23.4627H4.78455C4.17062 23.4627 3.58184 23.2188 3.14772 22.7847C2.71361 22.3506 2.46973 21.7618 2.46973 21.1479V2.62928ZM6.32777 9.57375H4.01294V17.2898H5.55616V14.2034H6.32777C6.9417 14.2034 7.53048 13.9595 7.96459 13.5254C8.39871 13.0913 8.64259 12.5025 8.64259 11.8886C8.64259 11.2746 8.39871 10.6859 7.96459 10.2517C7.53048 9.81763 6.9417 9.57375 6.32777 9.57375ZM12.5006 9.57375H10.1858V17.2898H12.5006C13.1146 17.2898 13.7033 17.046 14.1375 16.6118C14.5716 16.1777 14.8155 15.5889 14.8155 14.975V11.8886C14.8155 11.2746 14.5716 10.6859 14.1375 10.2517C13.7033 9.81763 13.1146 9.57375 12.5006 9.57375ZM16.3587 17.2898V9.57375H20.9883V11.117H17.9019V12.6602H19.4451V14.2034H17.9019V17.2898H16.3587Z" fill="#D02020"/>
</g>
<defs>
<clipPath id="clip0_1_4005">
<rect width="23.1482" height="23.1482" fill="white" transform="translate(0.92627 0.314453)"/>
</clipPath>
</defs>
</svg>
