<svg width="37" height="28" viewBox="0 0 37 28" fill="none" xmlns="http://www.w3.org/2000/svg">
<path d="M1.74805 0.0455685C2.24039 0.299413 2.60429 0.728283 2.98828 1.11979C3.05696 1.18918 3.12565 1.25856 3.19641 1.33005C3.36503 1.5005 3.53326 1.6713 3.70117 1.84244C4.07741 1.71783 4.44868 1.58363 4.81964 1.44419C5.24639 1.3007 5.65016 1.28397 6.09774 1.28407C6.20005 1.28364 6.20005 1.28364 6.30443 1.2832C6.53297 1.28234 6.76151 1.28204 6.99005 1.28174C7.15395 1.28125 7.31784 1.28073 7.48173 1.28018C8.02005 1.27854 8.55836 1.27773 9.09668 1.27695C9.28222 1.27664 9.46776 1.27631 9.65331 1.27599C10.5252 1.2745 11.3972 1.27339 12.2691 1.27274C13.2744 1.27197 14.2797 1.26992 15.285 1.26676C16.0627 1.2644 16.8405 1.26325 17.6182 1.26299C18.0824 1.26281 18.5465 1.26211 19.0106 1.26014C19.4477 1.25832 19.8848 1.25799 20.3219 1.25879C20.4817 1.25883 20.6415 1.25834 20.8013 1.25727C22.4627 1.24671 23.722 1.61979 24.9609 2.77903C25.2895 3.11978 25.5309 3.49007 25.7568 3.90299C25.7823 3.94892 25.8077 3.99485 25.8339 4.04217C26.2917 4.92182 26.3193 5.81059 26.333 6.77897C26.3356 6.90679 26.3383 7.0346 26.3411 7.16242C26.3477 7.47242 26.3529 7.78241 26.3574 8.09244C26.4649 7.98363 26.4649 7.98363 26.5746 7.87263C27.2517 7.18765 27.9297 6.50372 28.6088 5.82078C28.9579 5.46968 29.3066 5.11823 29.6545 4.76593C29.9905 4.42568 30.3274 4.0864 30.665 3.74776C30.7934 3.61869 30.9214 3.48927 31.0491 3.3595C31.2285 3.17717 31.4092 2.99611 31.5902 2.81529C31.6682 2.73521 31.6682 2.73521 31.7477 2.65351C32.2951 2.11199 32.9316 1.75842 33.7109 1.74479C34.5903 1.7565 35.1844 2.06673 35.791 2.68717C36.2044 3.27278 36.3255 3.77797 36.32 4.4887C36.3206 4.57159 36.3212 4.65448 36.3218 4.73988C36.3234 5.01623 36.3228 5.29253 36.3222 5.56889C36.3229 5.76759 36.3237 5.96629 36.3246 6.165C36.3265 6.6479 36.3269 7.13078 36.3265 7.61369C36.3263 8.00645 36.3265 8.39921 36.3272 8.79197C36.3273 8.84798 36.3274 8.90399 36.3275 8.96169C36.3277 9.0755 36.3279 9.1893 36.328 9.3031C36.3297 10.3692 36.3294 11.4353 36.3285 12.5014C36.3277 13.4753 36.3294 14.4491 36.3324 15.423C36.3354 16.4245 36.3367 17.426 36.3361 18.4275C36.3358 18.9891 36.3362 19.5508 36.3384 20.1124C36.3405 20.6407 36.3401 21.169 36.338 21.6974C36.3377 21.8909 36.3381 22.0844 36.3394 22.2778C36.3519 24.3044 36.3519 24.3044 35.6328 25.0814C35.0951 25.6046 34.5181 25.83 33.7695 25.8512C32.305 25.8276 31.388 24.5404 30.4315 23.5804C30.3135 23.4623 30.1956 23.3442 30.0775 23.2261C29.7694 22.9177 29.4615 22.609 29.1536 22.3002C28.8384 21.9843 28.5231 21.6685 28.2077 21.3528C27.5907 20.735 26.974 20.1169 26.3574 19.4987C26.3563 19.5742 26.3551 19.6498 26.354 19.7277C26.3494 20.0125 26.3434 20.2973 26.3369 20.5821C26.3343 20.7045 26.3321 20.8269 26.3304 20.9493C26.3173 21.8202 26.2888 22.6598 25.8643 23.444C25.7053 23.6932 25.7053 23.6932 25.7814 23.8693C25.9105 24.0626 26.0562 24.2123 26.2231 24.3742C26.2889 24.4387 26.3547 24.5033 26.4224 24.5698C26.4912 24.6366 26.56 24.7033 26.6309 24.7721C26.7671 24.9044 26.903 25.037 27.0386 25.1701C27.1291 25.2579 27.1291 25.2579 27.2215 25.3475C27.5603 25.7204 27.5632 26.047 27.5537 26.5367C27.5093 26.9508 27.3122 27.1424 27.0215 27.4186C26.6263 27.6021 26.2389 27.6214 25.8105 27.5456C25.462 27.3374 25.176 27.0896 24.8917 26.8026C24.8487 26.7599 24.8057 26.7171 24.7615 26.6731C24.6178 26.53 24.4746 26.3863 24.3315 26.2426C24.2274 26.1387 24.1234 26.0349 24.0193 25.9311C23.7335 25.646 23.4481 25.3603 23.1629 25.0746C22.8552 24.7665 22.547 24.4588 22.2388 24.1511C21.6354 23.5484 21.0323 22.9452 20.4294 22.3418C19.9396 21.8516 19.4496 21.3616 18.9595 20.8716C18.8897 20.8019 18.82 20.7323 18.7482 20.6605C18.6066 20.5189 18.465 20.3774 18.3234 20.2358C17.0331 18.946 15.7433 17.6557 14.4536 16.3652C13.276 15.1868 12.0979 14.0088 10.9195 12.8311C9.59571 11.5082 8.27217 10.185 6.94904 8.86137C6.80805 8.72033 6.66706 8.57929 6.52607 8.43825C6.4567 8.36885 6.38732 8.29946 6.31585 8.22795C5.82623 7.73821 5.33644 7.24864 4.84657 6.75914C4.24997 6.16298 3.65364 5.56653 3.05768 4.96973C2.75343 4.66507 2.44905 4.36054 2.14434 4.05634C1.86568 3.77814 1.58738 3.49959 1.30937 3.22075C1.20847 3.11967 1.10744 3.01873 1.00626 2.91793C0.869258 2.7814 0.732741 2.6444 0.596338 2.50727C0.556523 2.46782 0.516708 2.42837 0.475687 2.38773C0.126361 2.03464 0.00631026 1.80132 0 1.30533C0.0079192 0.898485 0.0527747 0.662302 0.341797 0.358068C0.742326 -0.022434 1.22111 -0.0477437 1.74805 0.0455685ZM5.73242 3.87369C6.10548 4.32241 6.50539 4.73579 6.91842 5.14773C7.02565 5.25515 7.02565 5.25515 7.13505 5.36474C7.3323 5.56231 7.52979 5.75965 7.72733 5.95694C7.94075 6.17018 8.15395 6.38365 8.36717 6.59709C8.78432 7.01459 9.20168 7.43187 9.61911 7.84908C9.95817 8.18796 10.2972 8.52692 10.6361 8.86594C10.7085 8.93835 10.7085 8.93835 10.7823 9.01223C10.8804 9.11031 10.9784 9.20838 11.0765 9.30646C11.995 10.2252 12.9138 11.1438 13.8327 12.0622C14.6218 12.851 15.4107 13.6399 16.1995 14.4291C17.1154 15.3454 18.0314 16.2616 18.9477 17.1776C19.0453 17.2752 19.1428 17.3727 19.2404 17.4703C19.2884 17.5182 19.3364 17.5662 19.3859 17.6157C19.7249 17.9546 20.0638 18.2936 20.4027 18.6327C20.815 19.0453 21.2275 19.4577 21.6402 19.87C21.8509 20.0805 22.0615 20.291 22.272 20.5018C22.4996 20.7296 22.7275 20.9572 22.9554 21.1847C23.0226 21.2521 23.0899 21.3196 23.1592 21.389C23.2197 21.4494 23.2803 21.5097 23.3427 21.5719C23.3953 21.6245 23.4479 21.6771 23.5022 21.7314C23.6053 21.8513 23.6053 21.8513 23.7012 21.8424C23.7659 21.4481 23.7906 21.0659 23.7897 20.6661C23.79 20.5745 23.79 20.5745 23.7903 20.4809C23.7908 20.2773 23.7907 20.0738 23.7906 19.8702C23.7909 19.7237 23.7911 19.5772 23.7914 19.4308C23.7921 19.0337 23.7923 18.6366 23.7924 18.2395C23.7924 17.9911 23.7926 17.7428 23.7928 17.4944C23.7935 16.6272 23.7938 15.76 23.7938 14.8928C23.7937 14.0857 23.7946 13.2786 23.7958 12.4715C23.7968 11.7776 23.7972 11.0836 23.7972 10.3897C23.7972 9.97567 23.7974 9.56166 23.7982 9.14765C23.799 8.75803 23.799 8.36841 23.7984 7.97879C23.7983 7.83629 23.7985 7.69378 23.799 7.55128C23.8085 5.91482 23.8085 5.91482 23.0295 4.51304C22.3709 3.89182 21.519 3.78296 20.6478 3.78565C20.5864 3.78553 20.5251 3.7854 20.4619 3.78528C20.2576 3.78497 20.0533 3.78521 19.8489 3.78546C19.702 3.78535 19.555 3.78521 19.408 3.78504C19.0096 3.78469 18.6113 3.78483 18.2129 3.78507C17.7957 3.78527 17.3785 3.78509 16.9612 3.78497C16.2606 3.78482 15.56 3.78501 14.8594 3.78538C14.0498 3.78581 13.2402 3.78567 12.4306 3.78524C11.7351 3.78489 11.0395 3.78484 10.344 3.78504C9.92878 3.78516 9.51356 3.78518 9.09834 3.78492C8.70795 3.78469 8.31756 3.78485 7.92717 3.7853C7.78403 3.78541 7.6409 3.78538 7.49776 3.7852C7.30212 3.78499 7.10648 3.78526 6.91084 3.78565C6.85444 3.78547 6.79804 3.7853 6.73994 3.78512C6.39557 3.78644 6.07118 3.81803 5.73242 3.87369ZM33.41 4.67605C33.3475 4.73285 33.2849 4.78965 33.2204 4.84818C33.1168 4.94307 33.1168 4.94307 33.011 5.03988C32.9386 5.106 32.8662 5.17211 32.7916 5.24023C32.1166 5.85841 31.4526 6.48809 30.7917 7.12125C30.3482 7.54564 29.9018 7.96568 29.446 8.37679C26.9413 10.5531 26.9413 10.5531 25.8206 13.5525C25.7887 15.2618 26.6459 16.4501 27.7787 17.6295C28.3574 18.2216 28.9658 18.7813 29.5804 19.3356C30.0365 19.7477 30.4806 20.1718 30.9244 20.597C31.6129 21.2561 32.3072 21.9085 33.011 22.5513C33.0801 22.6145 33.1492 22.6778 33.2204 22.743C33.283 22.7998 33.3456 22.8566 33.41 22.9151C33.4647 22.9648 33.5193 23.0144 33.5756 23.0656C33.6839 23.1789 33.6839 23.1789 33.7793 23.1706C33.7793 16.9831 33.7793 10.7956 33.7793 4.42057C33.6288 4.42057 33.5147 4.58091 33.41 4.67605Z" fill="#46A0F1"/>
<path d="M2.99811 7.5459C3.38691 7.72642 3.56913 7.95879 3.77936 8.32715C3.8186 8.58497 3.8186 8.58497 3.81886 8.87008C3.81957 8.94921 3.81957 8.94921 3.8203 9.02994C3.82151 9.20573 3.82052 9.38143 3.81953 9.55722C3.81996 9.68366 3.82053 9.81011 3.82122 9.93655C3.82242 10.2084 3.82264 10.4803 3.8221 10.7522C3.82125 11.1827 3.82261 11.6132 3.82427 12.0437C3.82663 12.7253 3.82755 13.4068 3.82783 14.0884C3.82835 15.3073 3.83063 16.5262 3.83448 17.7451C3.83576 18.1724 3.83619 18.5997 3.83592 19.027C3.83588 19.2938 3.83648 19.5606 3.83722 19.8274C3.83743 19.9504 3.83737 20.0733 3.83702 20.1963C3.83438 21.1974 3.83675 22.1222 4.48249 22.9365C5.14395 23.5843 5.93285 23.7271 6.83432 23.728C6.91396 23.7283 6.91396 23.7283 6.99521 23.7285C7.17164 23.729 7.34807 23.7289 7.5245 23.7289C7.65159 23.7291 7.77868 23.7294 7.90577 23.7297C8.17872 23.7303 8.45167 23.7307 8.72462 23.731C9.15634 23.7314 9.58806 23.7327 10.0198 23.7342C10.1678 23.7347 10.3158 23.7352 10.4637 23.7357C10.5378 23.7359 10.6119 23.7362 10.6882 23.7364C11.6928 23.7397 12.6974 23.7423 13.7019 23.7432C14.3804 23.7439 15.0588 23.7456 15.7372 23.7487C16.096 23.7502 16.4547 23.7512 16.8135 23.7508C17.1508 23.7504 17.488 23.7515 17.8252 23.7537C17.9488 23.7542 18.0725 23.7542 18.1961 23.7537C18.3652 23.753 18.5341 23.7542 18.7031 23.7559C18.7976 23.7561 18.8921 23.7563 18.9894 23.7564C19.3891 23.8174 19.629 24.0159 19.9024 24.3037C20.0898 24.7072 20.0883 25.0772 20.0294 25.5147C19.8489 25.9033 19.6172 26.0869 19.2481 26.2959C18.9771 26.335 18.9771 26.335 18.6731 26.3351C18.5888 26.3357 18.5888 26.3357 18.5028 26.3364C18.3153 26.3374 18.1279 26.3363 17.9404 26.3351C17.8056 26.3354 17.6708 26.3358 17.536 26.3364C17.1704 26.3375 16.8048 26.3366 16.4392 26.3353C16.0558 26.3342 15.6724 26.3347 15.2891 26.335C14.6448 26.3352 14.0005 26.3342 13.3562 26.3323C12.6131 26.3303 11.87 26.3301 11.1268 26.3311C10.4105 26.3319 9.6942 26.3314 8.97789 26.3303C8.67382 26.3299 8.36976 26.3299 8.0657 26.3302C7.70672 26.3306 7.34776 26.3298 6.98878 26.3281C6.85765 26.3277 6.72652 26.3277 6.59539 26.328C5.08515 26.332 3.80523 25.9742 2.692 24.9164C2.00548 24.2264 1.63296 23.4633 1.35749 22.5459C1.33631 22.4786 1.33631 22.4786 1.3147 22.41C1.26512 22.1622 1.2687 21.9237 1.26787 21.671C1.26743 21.586 1.26744 21.586 1.267 21.4992C1.26613 21.309 1.26583 21.1189 1.26554 20.9288C1.26505 20.7925 1.26453 20.6562 1.26398 20.5199C1.26234 20.0724 1.26153 19.6249 1.26075 19.1774C1.26043 19.0233 1.26011 18.8692 1.25978 18.7151C1.2583 17.9914 1.25718 17.2676 1.25653 16.5439C1.25577 15.7084 1.25371 14.8728 1.25056 14.0373C1.2482 13.3915 1.24704 12.7456 1.24678 12.0998C1.2466 11.714 1.2459 11.3283 1.24394 10.9425C1.24212 10.5797 1.24178 10.2169 1.24259 9.8541C1.24263 9.72101 1.24213 9.58791 1.24106 9.45482C1.23968 9.27297 1.24023 9.09121 1.24126 8.90935C1.24107 8.80764 1.24089 8.70593 1.24069 8.60114C1.29869 8.19023 1.4918 7.95346 1.78718 7.67285C2.19069 7.48551 2.56063 7.48701 2.99811 7.5459Z" fill="#46A0F1"/>
</svg>
